<svg id="SVG" xmlns="http://www.w3.org/2000/svg" viewBox="0 0 695 695">
  <defs>
    <style>.cls-1{fill:none;stroke:rgb(209, 213, 219);stroke-miterlimit:10;stroke-width:25px;}.cls-2{fill:rgb(209, 213, 219);}</style>
  </defs>
  <circle id="Ring" class="cls-1" cx="347.5" cy="347.5" r="335" />
  <path class="cls-2" d="M371.79,191.34l-14.37-.74c-3.59-26.88-22.48-28.23-44-28.23H273V322.94c0,37.13.3,50.92,27.52,54.46v5.31c-14.66-.71-28.72-1.42-42.48-1.42-5.38,0-17.35.36-35.9,1.42V377.4c27.23-3.54,27.53-17.33,27.53-54.46V162.37H215.87c-24.53,0-41-.57-48.19,26.31l-12.37-.9,3.07-53.39,7.74-.44c3.14,12.17,22.92,10.83,45.95,10.83L313.7,145c21.54,0,42.61.62,42.61-11.92h8.11Z" transform="translate(-12.5 -12.5)" />
  <path class="cls-2" d="M441.5,424.93c0,20.51-9.87,38.55-26.32,48.81-12,7.43-26.93,8.49-46.67,8.49-14.66,0-28.13-.71-41-.71-17.95,0-34.1.35-47.87,1.41v-5.3c27.23-3.54,27.53-17.33,27.53-54.47V305.74c0-37.49-.3-50.93-27.53-54.82V246c14.07.7,26.63,1.06,38.3,1.06,5.68,0,13.16-.71,21.54-.71,55,0,82.87,24.76,82.87,62.25,0,24.05-12.27,42.44-35.61,52.34C422.36,370.46,441.5,394.16,441.5,424.93Zm-95.13-68.61c32,0,48.16-16.27,48.16-46,0-28.65-21.24-50.58-53.85-50.58-3.29,0-6.58.35-10.17.71V354.9A86.63,86.63,0,0,0,346.37,356.32ZM366.71,470.2c29.92,0,47.87-18,47.87-45.62,0-31.48-25.73-55.89-70.31-55.89-3.59,0-8.07.36-13.76.36v40l.3,8.85C332,453.58,333.8,470.2,366.71,470.2Z" transform="translate(-12.5 -12.5)" />
  <path class="cls-2" d="M444.21,388.88c-27.61,0-44.1,16.76-44.1,43.74,0,29.89,20.2,37.54,51.17,53.58,39.38,20.42,63.28,41.94,63.28,78,0,38.27-33.32,63.77-73,63.77-20.88,0-35.69-7.66-44.44-7.66-5.05,0-6-1.83-8,3.63l-17.27-1.75L374.74,561l10.56,7.55c9.42,31,29.62,47.75,56.22,47.75,25.92,0,45.1-20.41,45.1-47,0-31.35-21.88-37.91-53.86-53.95-37.37-18.59-54.87-37.54-54.87-72.54,0-37.9,26.93-66,64.3-66,17.17,0,31.31,6.19,41.74,6.19,5.05,0,7.7,0,10.73-6.19h6.88l.73,49-10.56-2.7C488.34,396.21,469.79,388.88,444.21,388.88Z" transform="translate(-12.5 -12.5)" />
</svg>